<?xml version="1.0" encoding="UTF-8"?>
<!DOCTYPE svg PUBLIC "-//W3C//DTD SVG 1.1//EN" "http://www.w3.org/Graphics/SVG/1.1/DTD/svg11.dtd">
<!-- Creator: CorelDRAW 2019 (64-Bit) -->
<svg xmlns="http://www.w3.org/2000/svg" xml:space="preserve" width="1.8103mm" height="1.8104mm" version="1.1" style="shape-rendering:geometricPrecision; text-rendering:geometricPrecision; image-rendering:optimizeQuality; fill-rule:evenodd; clip-rule:evenodd"
viewBox="0 0 0.68 0.68"
 xmlns:xlink="http://www.w3.org/1999/xlink"
 xmlns:xodm="http://www.corel.com/coreldraw/odm/2003">
 <defs>
  <style type="text/css">
   <![CDATA[
    .str0 {stroke:#4E74FC;stroke-width:0.05;stroke-miterlimit:22.9256}
    .fil0 {fill:#E4E8F5}
   ]]>
  </style>
 </defs>
 <g id="Layer_x0020_1">
  <metadata id="CorelCorpID_0Corel-Layer"/>
  <path class="fil0" d="M0.09 0.39l0.18 0c0.01,0 0.01,0.01 0.01,0.01l0 0.18c0,0.03 0.02,0.05 0.05,0.05 0.03,0 0.05,-0.02 0.05,-0.05l0 -0.18c0,-0.01 0.01,-0.01 0.01,-0.01l0.18 0c0.03,0 0.05,-0.02 0.05,-0.05 0,-0.03 -0.02,-0.05 -0.05,-0.05l-0.18 0c-0.01,0 -0.01,-0.01 -0.01,-0.01l0 -0.18c0,-0.03 -0.02,-0.05 -0.05,-0.05 -0.03,0 -0.05,0.02 -0.05,0.05l0 0.18c0,0.01 -0.01,0.01 -0.01,0.01l-0.18 0c-0.03,0 -0.05,0.02 -0.05,0.05 0,0.03 0.02,0.05 0.05,0.05z"/>
  <path class="fil0 str0" d="M0.03 0.34c0,0.04 0.03,0.08 0.08,0.08l0.16 0 0 0.16c0,0.04 0.03,0.08 0.08,0.08 0.04,0 0.08,-0.03 0.08,-0.08l0 -0.16 0.16 0c0.04,0 0.08,-0.03 0.08,-0.08 0,-0.04 -0.03,-0.08 -0.08,-0.08l-0.16 0 0 -0.16c0,-0.04 -0.03,-0.08 -0.08,-0.08 -0.04,0 -0.08,0.03 -0.08,0.08l0 0.16 -0.16 0c-0.04,0 -0.08,0.03 -0.08,0.08zm0.25 -0.05c0.01,0 0.01,-0.01 0.01,-0.01l0 -0.17c0,-0.03 0.02,-0.05 0.05,-0.05 0.03,0 0.05,0.02 0.05,0.05l0 0.17c0,0.01 0.01,0.01 0.01,0.01l0.17 0c0.03,0 0.05,0.02 0.05,0.05 0,0.03 -0.02,0.05 -0.05,0.05l-0.17 0c-0.01,0 -0.01,0.01 -0.01,0.01l0 0.17c0,0.03 -0.02,0.05 -0.05,0.05 -0.03,0 -0.05,-0.02 -0.05,-0.05l0 -0.17c0,-0.01 -0.01,-0.01 -0.01,-0.01l-0.17 0c-0.03,0 -0.05,-0.02 -0.05,-0.05 0,-0.03 0.02,-0.05 0.05,-0.05l0.17 0 0 0z"/>
  <path class="fil0" d="M0.1 0.39l0.17 0c0.01,0 0.01,0.01 0.01,0.01l0 0.17c0,0.03 0.02,0.05 0.05,0.05 0.03,0 0.05,-0.02 0.05,-0.05l0 -0.17c0,-0.01 0.01,-0.01 0.01,-0.01l0.17 0c0.03,0 0.05,-0.02 0.05,-0.05 0,-0.03 -0.02,-0.05 -0.05,-0.05l-0.17 0c-0.01,0 -0.01,-0.01 -0.01,-0.01l0 -0.17c0,-0.03 -0.02,-0.05 -0.05,-0.05 -0.03,0 -0.05,0.02 -0.05,0.05l0 0.17c0,0.01 -0.01,0.01 -0.01,0.01l-0.17 0c-0.03,0 -0.05,0.02 -0.05,0.05 0,0.03 0.02,0.05 0.05,0.05z"/>
 </g>
</svg>
