<?xml version="1.0" encoding="UTF-8"?>
<!DOCTYPE svg PUBLIC "-//W3C//DTD SVG 1.1//EN" "http://www.w3.org/Graphics/SVG/1.1/DTD/svg11.dtd">
<!-- Creator: CorelDRAW 2019 (64-Bit) -->
<svg xmlns="http://www.w3.org/2000/svg" xml:space="preserve" width="2.8976mm" height="3.1799mm" version="1.1" style="shape-rendering:geometricPrecision; text-rendering:geometricPrecision; image-rendering:optimizeQuality; fill-rule:evenodd; clip-rule:evenodd"
viewBox="0 0 1.83 2.01"
 xmlns:xlink="http://www.w3.org/1999/xlink"
 xmlns:xodm="http://www.corel.com/coreldraw/odm/2003">
 <defs>
  <style type="text/css">
   <![CDATA[
    .str0 {stroke:#2B2B81;stroke-width:0.03;stroke-miterlimit:22.9256}
    .fil0 {fill:#2B2B81}
   ]]>
  </style>
 </defs>
 <g id="Layer_x0020_1">
  <metadata id="CorelCorpID_0Corel-Layer"/>
  <path class="fil0 str0" d="M1.43 1.99l-1.02 0c-0.12,0 -0.23,-0.1 -0.23,-0.23l0 -1.11c0,-0.03 0.03,-0.06 0.06,-0.06l1.35 0c0.03,0 0.06,0.03 0.06,0.06l0 1.11c0,0.13 -0.1,0.23 -0.23,0.23zm-1.13 -1.28l0 1.05c0,0.06 0.05,0.1 0.1,0.1l1.02 0c0.06,0 0.1,-0.05 0.1,-0.1l0 -1.05 -1.23 0z"/>
  <path class="fil0 str0" d="M1.75 0.71l-1.68 0c-0.03,0 -0.06,-0.03 -0.06,-0.06l0 -0.16c0,-0.13 0.1,-0.23 0.23,-0.23l1.35 0c0.12,0 0.23,0.1 0.23,0.23l0 0.16c0,0.03 -0.03,0.06 -0.06,0.06zm-1.62 -0.12l1.56 0 0 -0.1c0,-0.06 -0.05,-0.1 -0.1,-0.1l-1.35 0c-0.06,0 -0.1,0.05 -0.1,0.1l0 0.1z"/>
  <path class="fil0 str0" d="M1.18 0.38l-0.53 0c-0.03,0 -0.06,-0.03 -0.06,-0.06l0 -0.16c0,-0.08 0.06,-0.14 0.14,-0.14l0.37 0c0.08,0 0.14,0.06 0.14,0.14l0 0.16c0,0.03 -0.03,0.06 -0.06,0.06l0 0zm-0.47 -0.12l0.41 0 0 -0.1c0,-0.01 -0.01,-0.02 -0.02,-0.02l-0.37 0c-0.01,0 -0.02,0.01 -0.02,0.02l0 0.1z"/>
  <path class="fil0 str0" d="M0.57 1.66c-0.03,0 -0.06,-0.03 -0.06,-0.06l0 -0.62c0,-0.03 0.03,-0.06 0.06,-0.06 0.03,0 0.06,0.03 0.06,0.06l0 0.62c0,0.03 -0.03,0.06 -0.06,0.06z"/>
  <path class="fil0 str0" d="M0.91 1.66c-0.03,0 -0.06,-0.03 -0.06,-0.06l0 -0.62c0,-0.03 0.03,-0.06 0.06,-0.06 0.03,0 0.06,0.03 0.06,0.06l0 0.62c0,0.03 -0.03,0.06 -0.06,0.06z"/>
  <path class="fil0 str0" d="M1.26 1.66c-0.03,0 -0.06,-0.03 -0.06,-0.06l0 -0.62c0,-0.03 0.03,-0.06 0.06,-0.06 0.03,0 0.06,0.03 0.06,0.06l0 0.62c0,0.03 -0.03,0.06 -0.06,0.06z"/>
 </g>
</svg>
