<?xml version="1.0" encoding="UTF-8"?>
<!DOCTYPE svg PUBLIC "-//W3C//DTD SVG 1.1//EN" "http://www.w3.org/Graphics/SVG/1.1/DTD/svg11.dtd">
<!-- Creator: CorelDRAW 2019 (64-Bit) -->
<svg xmlns="http://www.w3.org/2000/svg" xml:space="preserve" width="3.3146mm" height="2.7296mm" version="1.1" style="shape-rendering:geometricPrecision; text-rendering:geometricPrecision; image-rendering:optimizeQuality; fill-rule:evenodd; clip-rule:evenodd"
viewBox="0 0 2.12 1.75"
 xmlns:xlink="http://www.w3.org/1999/xlink"
 xmlns:xodm="http://www.corel.com/coreldraw/odm/2003">
 <defs>
  <style type="text/css">
   <![CDATA[
    .str1 {stroke:#6082FC;stroke-width:0.09;stroke-miterlimit:22.9256}
    .str0 {stroke:#707AFF;stroke-width:0.09;stroke-miterlimit:22.9256}
    .fil0 {fill:#FFED00}
    .fil1 {fill:#E4E8F5}
   ]]>
  </style>
 </defs>
 <g id="Layer_x0020_1">
  <metadata id="CorelCorpID_0Corel-Layer"/>
  <path class="fil0 str0" d="M0.04 1.01c0,0.09 0.08,0.17 0.17,0.17l0.36 0 0 0.36c0,0.09 0.08,0.17 0.17,0.17 0.09,0 0.17,-0.08 0.17,-0.17l0 -0.36 0.36 0c0.09,0 0.17,-0.08 0.17,-0.17 0,-0.09 -0.08,-0.17 -0.17,-0.17l-0.36 0 0 -0.36c0,-0.09 -0.08,-0.17 -0.17,-0.17 -0.09,0 -0.17,0.08 -0.17,0.17l0 0.36 -0.36 0c-0.09,0 -0.17,0.08 -0.17,0.17zm0.56 -0.11c0.02,0 0.03,-0.01 0.03,-0.03l0 -0.39c0,-0.06 0.05,-0.11 0.11,-0.11 0.06,0 0.11,0.05 0.11,0.11l0 0.39c0,0.02 0.01,0.03 0.03,0.03l0.39 0c0.06,0 0.11,0.05 0.11,0.11 0,0.06 -0.05,0.11 -0.11,0.11l-0.39 0c-0.02,0 -0.03,0.01 -0.03,0.03l0 0.39c0,0.06 -0.05,0.11 -0.11,0.11 -0.06,0 -0.11,-0.05 -0.11,-0.11l0 -0.39c0,-0.02 -0.01,-0.03 -0.03,-0.03l-0.39 0c-0.06,0 -0.11,-0.05 -0.11,-0.11 0,-0.06 0.05,-0.11 0.11,-0.11l0.39 0 0 0z"/>
  <path class="fil1" d="M0.21 1.12l0.39 0c0.02,0 0.03,0.01 0.03,0.03l0 0.39c0,0.06 0.05,0.11 0.11,0.11 0.06,0 0.11,-0.05 0.11,-0.11l0 -0.39c0,-0.02 0.01,-0.03 0.03,-0.03l0.39 0c0.06,0 0.11,-0.05 0.11,-0.11 0,-0.06 -0.05,-0.11 -0.11,-0.11l-0.39 0c-0.02,0 -0.03,-0.01 -0.03,-0.03l0 -0.39c0,-0.06 -0.05,-0.11 -0.11,-0.11 -0.06,0 -0.11,0.05 -0.11,0.11l0 0.39c0,0.02 -0.01,0.03 -0.03,0.03l-0.39 0c-0.06,0 -0.11,0.05 -0.11,0.11 0,0.06 0.05,0.11 0.11,0.11z"/>
  <path class="fil0 str1" d="M0.6 0.78c0,0.1 0.08,0.18 0.18,0.18l0.38 0 0 0.38c0,0.1 0.08,0.18 0.18,0.18 0.1,0 0.18,-0.08 0.18,-0.18l0 -0.38 0.38 0c0.1,0 0.18,-0.08 0.18,-0.18 0,-0.1 -0.08,-0.18 -0.18,-0.18l-0.38 0 0 -0.38c0,-0.1 -0.08,-0.18 -0.18,-0.18 -0.1,0 -0.18,0.08 -0.18,0.18l0 0.38 -0.38 0c-0.1,0 -0.18,0.08 -0.18,0.18zm0.59 -0.12c0.02,0 0.03,-0.01 0.03,-0.03l0 -0.41c0,-0.07 0.05,-0.12 0.12,-0.12 0.07,0 0.12,0.05 0.12,0.12l0 0.41c0,0.02 0.01,0.03 0.03,0.03l0.41 0c0.07,0 0.12,0.05 0.12,0.12 0,0.07 -0.05,0.12 -0.12,0.12l-0.41 0c-0.02,0 -0.03,0.01 -0.03,0.03l0 0.41c0,0.07 -0.05,0.12 -0.12,0.12 -0.07,0 -0.12,-0.05 -0.12,-0.12l0 -0.41c0,-0.02 -0.01,-0.03 -0.03,-0.03l-0.41 0c-0.07,0 -0.12,-0.05 -0.12,-0.12 0,-0.07 0.05,-0.12 0.12,-0.12l0.41 0 0 0z"/>
  <path class="fil1" d="M0.78 0.9l0.41 0c0.02,0 0.03,0.01 0.03,0.03l0 0.41c0,0.07 0.05,0.12 0.12,0.12 0.07,0 0.12,-0.05 0.12,-0.12l0 -0.41c0,-0.02 0.01,-0.03 0.03,-0.03l0.41 0c0.07,0 0.12,-0.05 0.12,-0.12 0,-0.07 -0.05,-0.12 -0.12,-0.12l-0.41 0c-0.02,0 -0.03,-0.01 -0.03,-0.03l0 -0.41c0,-0.07 -0.05,-0.12 -0.12,-0.12 -0.07,0 -0.12,0.05 -0.12,0.12l0 0.41c0,0.02 -0.01,0.03 -0.03,0.03l-0.41 0c-0.07,0 -0.12,0.05 -0.12,0.12 0,0.07 0.05,0.12 0.12,0.12z"/>
 </g>
</svg>
