<?xml version="1.0" encoding="UTF-8"?>
<!DOCTYPE svg PUBLIC "-//W3C//DTD SVG 1.1//EN" "http://www.w3.org/Graphics/SVG/1.1/DTD/svg11.dtd">
<!-- Creator: CorelDRAW 2019 (64-Bit) -->
<svg xmlns="http://www.w3.org/2000/svg" xml:space="preserve" width="1.3955mm" height="1.3957mm" version="1.1" style="shape-rendering:geometricPrecision; text-rendering:geometricPrecision; image-rendering:optimizeQuality; fill-rule:evenodd; clip-rule:evenodd"
viewBox="0 0 0.4 0.4"
 xmlns:xlink="http://www.w3.org/1999/xlink"
 xmlns:xodm="http://www.corel.com/coreldraw/odm/2003">
 <defs>
  <style type="text/css">
   <![CDATA[
    .str0 {stroke:#5465FF;stroke-width:0.01;stroke-miterlimit:2.61313}
    .fil0 {fill:#5465FF}
   ]]>
  </style>
 </defs>
 <g id="Layer_x0020_1">
  <metadata id="CorelCorpID_0Corel-Layer"/>
  <path class="fil0 str0" d="M0.04 0.24l0.12 0c0,0 0.01,0 0.01,0.01l0 0.12c0,0.02 0.02,0.03 0.03,0.03 0.02,0 0.03,-0.02 0.03,-0.03l0 -0.12c0,-0 0,-0.01 0.01,-0.01l0.12 0c0.02,0 0.03,-0.02 0.03,-0.03 0,-0.02 -0.02,-0.03 -0.03,-0.03l-0.12 0c-0,0 -0.01,-0 -0.01,-0.01l0 -0.12c0,-0.02 -0.02,-0.03 -0.03,-0.03 -0.02,0 -0.03,0.02 -0.03,0.03l0 0.12c0,0 -0,0.01 -0.01,0.01l-0.12 0c-0.02,0 -0.03,0.02 -0.03,0.03 0,0.02 0.02,0.03 0.03,0.03z"/>
 </g>
</svg>
