<?xml version="1.0" encoding="UTF-8"?>
<!DOCTYPE svg PUBLIC "-//W3C//DTD SVG 1.1//EN" "http://www.w3.org/Graphics/SVG/1.1/DTD/svg11.dtd">
<!-- Creator: CorelDRAW 2019 (64-Bit) -->
<svg xmlns="http://www.w3.org/2000/svg" xml:space="preserve" width="2.4426mm" height="2.2523mm" version="1.1" style="shape-rendering:geometricPrecision; text-rendering:geometricPrecision; image-rendering:optimizeQuality; fill-rule:evenodd; clip-rule:evenodd"
viewBox="0 0 1.08 0.99"
 xmlns:xlink="http://www.w3.org/1999/xlink"
 xmlns:xodm="http://www.corel.com/coreldraw/odm/2003">
 <defs>
  <style type="text/css">
   <![CDATA[
    .fil0 {fill:#FEFEFE}
   ]]>
  </style>
 </defs>
 <g id="Layer_x0020_1">
  <metadata id="CorelCorpID_0Corel-Layer"/>
  <path class="fil0" d="M0.57 0.24c-0.01,0 -0,0 -0,-0 -0.02,-0.01 -0.04,-0 -0.05,0.01 -0.02,0.01 -0.01,0.02 -0.01,0.05l-0 0.32c0,0.04 0.05,0.06 0.08,0.03 0.02,-0.01 0.02,-0.02 0.02,-0.05l0 -0.32c0,-0.02 -0.01,-0.04 -0.02,-0.04z"/>
  <path class="fil0" d="M0.54 0.74c-0.01,0 -0.03,0.01 -0.03,0.03 0,0 0,0 -0,0 0,0.02 -0,0.02 0.01,0.04l0 0c0.01,0.01 0.02,0.01 0.04,0.02 0,-0 -0,-0 0,-0 0.02,-0 0.04,-0.02 0.04,-0.04 0,-0 -0,-0 0,-0 -0,-0.02 -0,-0.02 -0.01,-0.03l-0 -0c-0,0 -0,0 -0,-0 -0.01,-0.01 -0.02,-0.01 -0.04,-0.01 0,0 0,0 -0,0z"/>
  <path class="fil0" d="M0.88 0.91l-0.02 0c0.01,0 -0.01,0 0.01,0 0.01,-0 0,-0 0.01,-0z"/>
  <path class="fil0" d="M0.96 0.99c-0,-0 0.01,-0 -0.01,-0 -0.01,0 -0,0 -0.01,0l0.02 0z"/>
  <path class="fil0" d="M0.16 0.99c-0,-0 -0,-0 -0.01,-0 -0,-0 -0.01,-0 -0.01,0 0,0 -0,0 0.01,0 0,0 0.01,0 0.01,0z"/>
  <path class="fil0" d="M0.31 0.91c-0,-0 -0.01,-0 -0.01,-0 0,0 0,0 0.01,0 0,0 0,0 0.01,-0z"/>
  <path class="fil0" d="M0.39 0.15c-0.01,0 -0,-0 -0,0 0.01,0 0,0 0,-0z"/>
  <path class="fil0" d="M0.13 0.91c0,-0 0,-0 -0,-0 0,0 -0,0 0,0z"/>
  <path class="fil0" d="M0.54 0.74c-0.01,0 -0,-0 -0,0 0.01,0 0,0 0,-0z"/>
  <path class="fil0" d="M0.11 0.88c0,-0.01 0,-0 -0,-0 0,0.01 -0,0 0,0z"/>
  <path class="fil0" d="M0.11 0.67c-0,0 -0,-0 -0,0 0,0 0,0 0,-0z"/>
  <path class="fil0" d="M0.34 0.24c-0,0 -0,-0 -0,0 0,0 0,0 0,-0z"/>
  <path class="fil0" d="M0.42 0.28c-0,0 -0,-0 -0,0 0,0 0,0 0,-0z"/>
  <path class="fil0" d="M0.57 0.24c0,-0 0,-0 -0,-0 0,0 -0,0 0,0z"/>
  <path class="fil0" d="M0.43 0.27c-0,0 -0,-0 -0,0 0,0 0,0 0,-0z"/>
  <path class="fil0" d="M0.42 0.27c-0,0 -0,-0 -0,0 0,0 0,0 0,-0z"/>
  <path class="fil0" d="M0.51 0.77c-0,0 -0,-0 -0,0 0,0 0,0 0,-0z"/>
  <path class="fil0" d="M0.2 0.68c-0,0 -0,-0 -0,0 0,0 0,0 0,-0z"/>
  <path class="fil0" d="M0.11 0.66c-0,0 -0,-0 -0,0 0,0 0,0 0,-0z"/>
  <path class="fil0" d="M0.59 0.01c0,-0 0,-0 -0,-0 0,0 -0,0 0,0z"/>
  <path class="fil0" d="M0.85 0.41c0,-0 0,-0 -0,-0 0,0 -0,0 0,0z"/>
  <path class="fil0" d="M0.1 0.67c-0,0 -0,-0 -0,0 0,0 0,0 0,-0z"/>
  <path class="fil0" d="M0.33 0.25c-0,0 -0,-0 -0,0 0,0 0,0 0,-0z"/>
  <path class="fil0" d="M0.19 0.69c-0,0 -0,-0 -0,0 0,0 0,0 0,-0z"/>
  <path class="fil0" d="M0.11 0.66c-0,0 -0,-0 -0,0 0,0 0,0 0,-0z"/>
  <path class="fil0" d="M0.04 0.94c0,-0 0,-0 -0,-0 0,0 -0,0 0,0z"/>
  <path class="fil0" d="M0.43 0.26c-0,0 -0,-0 -0,0 0,0 0,0 0,-0z"/>
  <path class="fil0" d="M0.33 0.25c-0,0 -0,-0 -0,0 0,0 0,0 0,-0z"/>
  <path class="fil0" d="M0.14 0.79c-0,0 -0,-0 -0,0 0,0 0,0 0,-0z"/>
  <path class="fil0" d="M0.07 0.97c0,-0 0,-0 -0,-0 0,0 -0,0 0,0z"/>
  <path class="fil0" d="M0.59 0.75c0,-0 0,-0 -0,-0 0,0 -0,0 0,0z"/>
  <path class="fil0" d="M0.56 0.82c-0,0 -0,-0 -0,0 0,0 0,0 0,-0z"/>
  <path class="fil0" d="M0.6 0.78c-0,0 -0,-0 -0,0 0,0 0,0 0,-0z"/>
  <path class="fil0" d="M0.59 0.76c0,-0 0,-0 -0,-0l0 0z"/>
  <polygon class="fil0" points="0.39,0.15 0.38,0.15 "/>
  <polygon class="fil0" points="0.2,0.68 0.2,0.68 "/>
  <polygon class="fil0" points="0.1,0.68 0.1,0.68 "/>
  <polygon class="fil0" points="0.14,0.78 0.14,0.78 "/>
  <polygon class="fil0" points="0.52,0.81 0.51,0.81 "/>
  <path class="fil0" d="M0.38 0.15c0,0.01 0,0 -0,0l0 0 -0 0c-0,0.01 -0.01,0.01 -0.01,0.02 -0,0.01 -0.01,0.01 -0.01,0.02 -0.01,0.01 -0.02,0.03 -0.02,0.04 0,0 0,0 -0,0l0 0c0,0 0,0 -0,0l0 0c0,0 0,0 -0,0 -0.01,0.01 -0.02,0.03 -0.03,0.05l-0.08 0.15c-0.02,0.03 -0.04,0.07 -0.05,0.1 -0.01,0.02 -0.05,0.09 -0.05,0.1 0,0 0,0 -0,0l0 0c0,0 0,0 -0,0l0 0c0,0 0,0 -0,0l0 0c0,0 0,0 -0,0l0 0 -0 0 -0.06 0.12c-0.03,0.05 -0.03,0.08 0,0.14 0,0 0,-0 0,0 0.01,0.01 0.01,0.02 0.03,0.03 0,0 0,-0 0,0 0.01,0.01 0.02,0.01 0.03,0.02 0.01,0.01 0.02,0.01 0.04,0.01 0,-0 0.01,-0 0.01,0 0.01,0 0,0 0.01,0l0.79 0c0,-0 -0.01,-0 0.01,-0 0.02,-0 0,-0 0.01,0 0.01,-0 0.02,-0 0.03,-0 0.05,-0.01 0.1,-0.06 0.1,-0.11 0.01,-0.06 -0.03,-0.11 -0.06,-0.17 -0.03,-0.05 -0.06,-0.1 -0.08,-0.15l-0.06 -0.12c-0.01,-0.02 -0.01,-0.03 -0.03,-0.03 -0,0 -0,0 -0,-0 -0.04,-0.01 -0.06,0.02 -0.06,0.04 0,0.02 0.17,0.33 0.2,0.37 0.01,0.03 0.04,0.05 0.01,0.08 -0.02,0.02 -0.07,0.01 -0.11,0.01 -0,0 0,0 -0.01,0 -0.02,0 -0,0 -0.01,-0 -0.01,0.01 -0.11,0 -0.14,0 -0.05,0 -0.09,0 -0.14,0 -0.09,0 -0.19,-0 -0.28,0 -0,0 -0,0 -0.01,0 -0.01,-0 -0,-0 -0.01,-0 -0.05,0 -0.11,0 -0.16,-0 -0.01,0 -0,0 -0,-0 -0.01,-0.01 -0.02,-0.01 -0.02,-0.03 -0.01,0 -0,0 -0,-0 0,-0.02 0.01,-0.03 0.01,-0.04 0.01,-0.01 0.02,-0.03 0.02,-0.04 0,-0 -0,-0 0,-0l0 -0 0 -0c0,-0.01 0.01,-0.01 0.01,-0.02 0,-0.01 0.01,-0.02 0.01,-0.02 0.01,-0.01 0.02,-0.03 0.02,-0.04 0,-0 -0,-0 0,-0l-0 -0c0,-0 -0,-0 0,-0l0 -0 0 -0c0.04,-0.08 0.08,-0.15 0.12,-0.22l0.04 -0.08c0.01,-0.02 0.02,-0.03 0.03,-0.05 0,-0.01 0.01,-0.02 0.01,-0.02 0,-0.01 0.01,-0.02 0.01,-0.03 0,-0 -0,-0 0,-0l-0 -0c0,-0 -0,-0 0,-0l-0 -0c0,-0 -0,-0 0,-0l-0 -0c0,-0 -0,-0 0,-0l0.08 -0.15c0.01,-0.02 0.03,-0.03 0.05,-0.02 0.02,0.01 0.03,0.02 0.04,0.04 0.01,0.02 0.02,0.03 0.03,0.05 0.02,0.03 0.04,0.07 0.06,0.1 0.04,0.07 0.09,0.03 0.09,0.01 0.01,-0.02 -0.01,-0.04 -0.01,-0.06 -0.01,-0.02 -0.02,-0.03 -0.03,-0.05 -0.02,-0.04 -0.05,-0.11 -0.09,-0.14 -0.01,-0.01 -0.03,-0.03 -0.05,-0.03 -0.01,0 -0,0 -0,-0 -0.03,-0 -0.04,-0.01 -0.08,0 -0.05,0.02 -0.07,0.04 -0.09,0.08 -0.01,0.02 -0.02,0.04 -0.03,0.06z"/>
  <path class="fil0" d="M0.56 0.24c-0.01,0 -0,0 -0,-0 -0.02,-0.01 -0.04,-0 -0.05,0.01 -0.02,0.01 -0.01,0.02 -0.01,0.05l-0 0.32c0,0.04 0.05,0.06 0.08,0.03 0.02,-0.01 0.02,-0.02 0.02,-0.05l0 -0.32c0,-0.02 -0.01,-0.04 -0.02,-0.04z"/>
  <path class="fil0" d="M0.53 0.74c-0.01,0 -0.03,0.01 -0.03,0.03 0,0 0,0 -0,0 0,0.02 -0,0.02 0.01,0.04l0 0c0.01,0.01 0.02,0.01 0.04,0.02 0,-0 -0,-0 0,-0 0.02,-0 0.04,-0.02 0.04,-0.04 0,-0 -0,-0 0,-0 -0,-0.02 -0,-0.02 -0.01,-0.03l-0 -0c-0,0 -0,0 -0,-0 -0.01,-0.01 -0.02,-0.01 -0.04,-0.01 0,0 0,0 -0,0z"/>
  <path class="fil0" d="M0.87 0.91l-0.02 0c0.01,0 -0.01,0 0.01,0 0.01,-0 0,-0 0.01,-0z"/>
  <path class="fil0" d="M0.95 0.99c-0,-0 0.01,-0 -0.01,-0 -0.01,0 -0,0 -0.01,0l0.02 0z"/>
  <path class="fil0" d="M0.15 0.99c-0,-0 -0,-0 -0.01,-0 -0,-0 -0.01,-0 -0.01,0 0,0 -0,0 0.01,0 0,0 0.01,0 0.01,0z"/>
  <path class="fil0" d="M0.29 0.91c-0,-0 -0.01,-0 -0.01,-0 0,0 0,0 0.01,0 0,0 0,0 0.01,-0z"/>
  <path class="fil0" d="M0.38 0.15c-0.01,0 -0,-0 -0,0 0.01,0 0,0 0,-0z"/>
  <path class="fil0" d="M0.12 0.91c0,-0 0,-0 -0,-0 0,0 -0,0 0,0z"/>
  <path class="fil0" d="M0.53 0.74c-0.01,0 -0,-0 -0,0 0.01,0 0,0 0,-0z"/>
  <path class="fil0" d="M0.1 0.88c0,-0.01 0,-0 -0,-0 0,0.01 -0,0 0,0z"/>
  <path class="fil0" d="M0.09 0.67c-0,0 -0,-0 -0,0 0,0 0,0 0,-0z"/>
  <path class="fil0" d="M0.33 0.24c-0,0 -0,-0 -0,0 0,0 0,0 0,-0z"/>
  <path class="fil0" d="M0.41 0.28c-0,0 -0,-0 -0,0 0,0 0,0 0,-0z"/>
  <path class="fil0" d="M0.56 0.24c0,-0 0,-0 -0,-0 0,0 -0,0 0,0z"/>
  <path class="fil0" d="M0.41 0.27c-0,0 -0,-0 -0,0 0,0 0,0 0,-0z"/>
  <path class="fil0" d="M0.41 0.27c-0,0 -0,-0 -0,0 0,0 0,0 0,-0z"/>
  <path class="fil0" d="M0.5 0.77c-0,0 -0,-0 -0,0 0,0 0,0 0,-0z"/>
  <path class="fil0" d="M0.18 0.68c-0,0 -0,-0 -0,0 0,0 0,0 0,-0z"/>
  <path class="fil0" d="M0.1 0.66c-0,0 -0,-0 -0,0 0,0 0,0 0,-0z"/>
  <path class="fil0" d="M0.58 0.01c0,-0 0,-0 -0,-0 0,0 -0,0 0,0z"/>
  <path class="fil0" d="M0.84 0.41c0,-0 0,-0 -0,-0 0,0 -0,0 0,0z"/>
  <path class="fil0" d="M0.09 0.67c-0,0 -0,-0 -0,0 0,0 0,0 0,-0z"/>
  <path class="fil0" d="M0.32 0.25c-0,0 -0,-0 -0,0 0,0 0,0 0,-0z"/>
  <path class="fil0" d="M0.18 0.69c-0,0 -0,-0 -0,0 0,0 0,0 0,-0z"/>
  <path class="fil0" d="M0.1 0.66c-0,0 -0,-0 -0,0 0,0 0,0 0,-0z"/>
  <path class="fil0" d="M0.03 0.94c0,-0 0,-0 -0,-0 0,0 -0,0 0,0z"/>
  <path class="fil0" d="M0.42 0.26c-0,0 -0,-0 -0,0 0,0 0,0 0,-0z"/>
  <path class="fil0" d="M0.32 0.25c-0,0 -0,-0 -0,0 0,0 0,0 0,-0z"/>
  <path class="fil0" d="M0.13 0.79c-0,0 -0,-0 -0,0 0,0 0,0 0,-0z"/>
  <path class="fil0" d="M0.06 0.97c0,-0 0,-0 -0,-0 0,0 -0,0 0,0z"/>
  <path class="fil0" d="M0.57 0.75c0,-0 0,-0 -0,-0 0,0 -0,0 0,0z"/>
  <path class="fil0" d="M0.55 0.82c-0,0 -0,-0 -0,0 0,0 0,0 0,-0z"/>
  <path class="fil0" d="M0.59 0.78c-0,0 -0,-0 -0,0 0,0 0,0 0,-0z"/>
  <path class="fil0" d="M0.58 0.76c0,-0 0,-0 -0,-0l0 0z"/>
  <polygon class="fil0" points="0.37,0.15 0.37,0.15 "/>
  <polygon class="fil0" points="0.19,0.68 0.18,0.68 "/>
  <polygon class="fil0" points="0.09,0.68 0.08,0.68 "/>
  <polygon class="fil0" points="0.13,0.78 0.13,0.78 "/>
  <polygon class="fil0" points="0.51,0.81 0.5,0.81 "/>
 </g>
</svg>
