<?xml version="1.0" encoding="UTF-8"?>
<!DOCTYPE svg PUBLIC "-//W3C//DTD SVG 1.1//EN" "http://www.w3.org/Graphics/SVG/1.1/DTD/svg11.dtd">
<!-- Creator: CorelDRAW 2019 (64-Bit) -->
<svg xmlns="http://www.w3.org/2000/svg" xml:space="preserve" width="2.6112mm" height="2.3129mm" version="1.1" style="shape-rendering:geometricPrecision; text-rendering:geometricPrecision; image-rendering:optimizeQuality; fill-rule:evenodd; clip-rule:evenodd"
viewBox="0 0 1.24 1.1"
 xmlns:xlink="http://www.w3.org/1999/xlink"
 xmlns:xodm="http://www.corel.com/coreldraw/odm/2003">
 <defs>
  <style type="text/css">
   <![CDATA[
    .str0 {stroke:#5D6CF5;stroke-width:0.03;stroke-miterlimit:22.9256}
    .fil0 {fill:#5D6CF5}
   ]]>
  </style>
 </defs>
 <g id="Layer_x0020_1">
  <metadata id="CorelCorpID_0Corel-Layer"/>
  <path class="fil0 str0" d="M0.34 0.03l0.08 -0.01 0.19 0.24c0.03,0.04 0.08,0.08 0.05,0.14 -0.03,0.06 -0.09,0.06 -0.17,0.07 -0,0.06 0.04,0.15 0.01,0.17 -0.03,0.02 -0.17,0.02 -0.21,0.04 -0,0.01 0,0.03 0.01,0.04 0.01,0.04 0.03,0.06 0.07,0.08 0.08,0.05 0.13,0.02 0.14,0.07 0,0.04 -0.04,0.11 -0.06,0.12 -0.03,0.03 -0.08,0.06 -0.14,0.08 -0.06,0.01 -0.15,0.02 -0.21,0.03 -0.03,0 -0.07,-0.01 -0.05,-0.04 0.03,-0.04 0.26,-0 0.36,-0.11 0.01,-0.01 0.03,-0.04 0.03,-0.06 -0.13,-0.03 -0.2,-0.1 -0.2,-0.22 -0,-0.03 0,-0.04 0.03,-0.05 0.03,-0.01 0.16,-0.02 0.19,-0.02 0,-0.03 -0.01,-0.08 -0.02,-0.11 -0.01,-0.05 -0.02,-0.06 0.05,-0.07 0.19,-0.02 0.17,-0.01 -0.01,-0.23l-0.11 -0.14z"/>
  <path class="fil0 str0" d="M1.09 0.43c0.05,0.01 0.08,0.1 0.11,0.15 0.05,0.1 0.03,0.26 -0.03,0.36 -0.02,0.03 -0.08,0.13 -0.12,0.12 -0.02,-0 -0.03,-0.01 -0.03,-0.03 0,-0.02 0.22,-0.2 0.09,-0.46l-0.05 -0.08c-0.04,-0.05 0.01,-0.06 0.02,-0.06z"/>
  <path class="fil0 str0" d="M0.9 0.51c0.02,0.01 0.03,0.02 0.04,0.05 0.01,0.02 0.02,0.04 0.03,0.06 0.04,0.1 0.01,0.23 -0.06,0.32 -0.01,0.01 -0.03,0.04 -0.06,0.03 -0.05,-0.01 0.01,-0.07 0.03,-0.1 0.04,-0.08 0.05,-0.17 0.01,-0.26 -0.01,-0.02 -0.03,-0.04 -0.04,-0.06 -0.01,-0.03 0.02,-0.05 0.05,-0.04z"/>
  <path class="fil0 str0" d="M0.76 0.59c0.01,0 0.01,-0 0.03,0.03 0.06,0.12 0,0.28 -0.06,0.26 -0.01,-0 -0.03,-0.01 -0.03,-0.03 0,-0.01 0.08,-0.1 0.02,-0.21 -0.01,-0.01 -0.02,-0.03 -0.01,-0.04 0.01,-0.01 0.02,-0.02 0.04,-0.01z"/>
  <path class="fil0 str0" d="M0.12 0.12c0.04,0 0.07,0.03 0.06,0.08 -0.01,0.03 -0.04,0.06 -0.09,0.05 -0.1,-0.02 -0.08,-0.14 0.03,-0.13z"/>
 </g>
</svg>
